<svg version="1.1" id="Layer_1" xmlns="http://www.w3.org/2000/svg" xmlns:xlink="http://www.w3.org/1999/xlink" x="0px" y="0px"
	 width="100%" viewBox="0 0 860 953" enable-background="new 0 0 860 953" xml:space="preserve">
<path fill="#F7F7F7" opacity="1.000000" stroke="none" 
	d="

M692.085938,694.597839 
	C703.224548,680.683472 714.726318,667.042358 725.435486,652.804932 
	C761.427551,604.955017 792.712402,554.402161 813.406128,497.825897 
	C828.421265,456.774872 834.575867,414.765808 828.770996,371.165161 
	C821.307861,315.109406 800.131836,264.593262 767.136719,219.035645 
	C714.987000,147.030655 646.312378,96.634933 563.089294,66.132271 
	C491.141052,39.762024 417.672729,34.750210 342.980164,53.109386 
	C271.665466,70.638275 208.906525,104.431816 154.439651,153.511047 
	C106.982750,196.273712 70.541435,246.809937 49.331043,307.470642 
	C28.962616,365.723297 25.127937,424.518555 45.149956,483.876953 
	C58.926666,524.720093 78.588394,562.622253 102.195084,598.493286 
	C160.242722,686.698547 231.819260,762.463135 314.686035,827.660522 
	C340.118164,847.669861 366.988556,865.471619 396.145538,879.871887 
	C420.616547,891.957947 444.766327,893.051697 469.031036,880.704285 
	C485.474609,872.336731 502.106049,864.023132 517.453735,853.871582 
	C583.714294,810.044617 640.048096,755.160522 692.085938,694.597839 
z"/>
<path fill="#097408" opacity="1.000000" stroke="none" 
	d="
M691.859558,694.869934 
	C640.048096,755.160522 583.714294,810.044617 517.453735,853.871582 
	C502.106049,864.023132 485.474609,872.336731 469.031036,880.704285 
	C444.766327,893.051697 420.616547,891.957947 396.145538,879.871887 
	C366.988556,865.471619 340.118164,847.669861 314.686035,827.660522 
	C231.819260,762.463135 160.242722,686.698547 102.195084,598.493286 
	C78.588394,562.622253 58.926666,524.720093 45.149956,483.876953 
	C25.127937,424.518555 28.962616,365.723297 49.331043,307.470642 
	C70.541435,246.809937 106.982750,196.273712 154.439651,153.511047 
	C208.906525,104.431816 271.665466,70.638275 342.980164,53.109386 
	C417.672729,34.750210 491.141052,39.762024 563.089294,66.132271 
	C646.312378,96.634933 714.987000,147.030655 767.136719,219.035645 
	C800.131836,264.593262 821.307861,315.109406 828.770996,371.165161 
	C834.575867,414.765808 828.421265,456.774872 813.406128,497.825897 
	C792.712402,554.402161 761.427551,604.955017 725.435486,652.804932 
	C714.726318,667.042358 703.224548,680.683472 691.859558,694.869934 
M767.026672,273.211792 
	C758.039368,259.094299 749.052063,244.976791 739.802612,230.241135 
	C737.210815,226.810074 734.868225,223.151703 731.983582,219.987686 
	C720.073059,206.924057 707.998169,194.010193 695.683044,180.441696 
	C686.527954,172.532700 677.827515,164.005661 668.111511,156.859222 
	C653.444763,146.071274 638.069397,136.246689 622.578430,125.480530 
	C616.049072,121.818260 609.622192,117.957329 602.973633,114.525993 
	C560.145386,92.422302 515.004211,77.916283 466.926025,72.763565 
	C441.318878,70.019150 415.760529,70.131554 390.278503,73.298027 
	C361.151550,76.917442 332.600250,83.516212 305.366180,94.528160 
	C287.528870,101.740585 270.368744,110.627731 252.201691,118.921677 
	C237.075470,128.483551 221.550858,137.480942 206.949615,147.786636 
	C195.354736,155.970398 184.889862,165.755188 173.313858,175.129089 
	C155.227341,190.936676 139.066055,208.504532 124.402840,228.306061 
	C115.553146,242.180023 106.703461,256.053986 97.350922,270.367767 
	C92.893448,279.437805 88.183159,288.395142 84.070015,297.618713 
	C81.458199,303.475616 79.734161,309.728394 77.086914,316.272400 
	C70.357903,332.906616 66.217987,350.200226 63.406891,368.569702 
	C62.588776,382.714050 61.770660,396.858398 60.924900,411.935608 
	C60.646961,430.837921 64.775482,449.010223 70.103622,467.754913 
	C70.587761,469.510406 71.000435,471.289337 71.566612,473.017944 
	C82.060219,505.055908 96.867798,535.079712 114.334984,564.607117 
	C128.884781,585.740112 143.434570,606.873108 158.255569,628.630066 
	C158.666550,629.354187 158.972855,630.167725 159.503632,630.789612 
	C181.372742,656.411011 202.744659,682.483276 225.333130,707.454834 
	C240.050125,723.724548 256.478333,738.454102 272.249847,753.760376 
	C294.206238,775.069214 317.834808,794.433960 342.333740,812.699829 
	C364.323029,829.094482 386.989502,844.445312 412.198669,855.740723 
	C424.643005,861.316650 436.851318,862.904968 449.828644,857.968994 
	C467.660919,851.186523 484.389099,842.275818 499.994598,831.452332 
	C515.669434,820.580933 531.243286,809.460999 546.004639,797.401306 
	C564.501892,782.289246 582.647156,766.660828 600.014221,750.269592 
	C631.842346,720.229858 661.518127,688.108948 688.657654,653.730835 
	C697.080017,643.062012 704.916931,631.930969 713.604126,620.677979 
	C723.911682,605.102905 734.492920,589.699890 744.424988,573.888916 
	C750.478271,564.252747 755.531372,553.988220 761.331360,543.387268 
	C764.989807,536.353699 768.878357,529.427856 772.237244,522.254028 
	C775.167847,515.994751 777.501526,509.456055 780.624939,502.573456 
	C782.230835,498.091309 784.008911,493.662201 785.408142,489.116455 
	C788.694275,478.440247 791.799255,467.708252 795.300110,456.304413 
	C797.462708,444.864868 799.625305,433.425323 801.902283,421.057007 
	C801.571167,408.033752 801.239990,395.010468 800.962769,381.133026 
	C799.970947,374.118927 799.476318,366.989197 797.878052,360.116119 
	C795.046631,347.940094 791.544556,335.919983 788.159912,323.094940 
	C783.049561,305.895538 776.107178,289.478333 767.026672,273.211792 
z"/>
<path fill="#68DA21" opacity="1.000000" stroke="none" 
	d="
M252.905304,118.764793 
	C270.368744,110.627731 287.528870,101.740585 305.366180,94.528160 
	C332.600250,83.516212 361.151550,76.917442 390.278503,73.298027 
	C415.760529,70.131554 441.318878,70.019150 466.926025,72.763565 
	C515.004211,77.916283 560.145386,92.422302 602.973633,114.525993 
	C609.622192,117.957329 616.049072,121.818260 622.792542,126.112076 
	C623.456848,127.775261 623.714172,128.957764 624.385620,129.816406 
	C639.972595,149.748428 651.809937,171.832916 659.578491,195.770920 
	C668.975891,224.728195 673.890076,254.466492 671.103699,285.174744 
	C669.807312,299.461578 669.514221,313.836639 663.772156,327.582397 
	C652.586243,330.185638 641.580139,332.048920 630.942505,335.168579 
	C604.460571,342.934875 580.262573,355.260101 558.776123,373.288086 
	C546.458130,383.493988 535.569397,394.615479 526.619019,407.964661 
	C517.548157,420.571381 509.692017,433.505615 504.211304,448.119141 
	C500.023590,460.907196 496.065704,473.450989 491.921692,486.340851 
	C490.244324,497.453308 488.753052,508.219727 487.147705,519.413269 
	C486.877380,521.888306 486.721191,523.936157 486.210999,525.997131 
	C483.117493,527.010498 480.449066,528.529053 477.625458,528.916260 
	C468.325134,530.191528 458.939667,530.846558 449.640167,532.127075 
	C433.560577,534.341125 417.674896,532.256531 401.773865,530.390747 
	C393.269287,529.392761 384.797180,528.117981 376.234741,526.535950 
	C375.993469,524.060120 375.827911,522.016479 375.734497,519.547302 
	C373.496399,505.744629 371.186096,492.367523 368.879486,478.610931 
	C368.287842,476.217072 367.812744,474.157593 367.076965,472.195862 
	C363.271118,462.049347 359.398560,451.927887 355.451141,441.440491 
	C349.991241,431.692810 344.629425,422.302277 339.170959,412.573242 
	C335.039520,406.919006 331.141846,401.490967 326.914368,396.333160 
	C324.674713,393.600647 321.861938,391.337891 319.159729,388.553925 
	C309.534882,378.554199 300.350372,368.522736 288.047943,361.598633 
	C282.082947,357.856964 276.442047,354.190033 270.549500,350.985931 
	C249.943314,339.781250 227.806473,332.926117 204.902237,327.924561 
	C203.921371,324.036346 202.626007,320.597107 202.031189,317.040649 
	C200.534836,308.093872 199.083786,299.122772 198.133438,290.106689 
	C197.371124,282.874359 196.828522,275.536713 197.163910,268.290955 
	C197.613541,258.576996 198.402832,248.797943 200.130646,239.242920 
	C202.741592,224.803940 205.222733,210.187454 209.743698,196.292130 
	C214.074524,182.981216 220.465134,170.255127 226.817581,157.711121 
	C233.255722,144.997894 240.665726,132.767868 250.882034,122.535477 
	C251.847168,121.568840 252.244415,120.035194 252.905304,118.764793 
z"/>
<path fill="#1C9B1B" opacity="1.000000" stroke="none" 
	d="
M713.021851,621.011475 
	C704.916931,631.930969 697.080017,643.062012 688.657654,653.730835 
	C661.518127,688.108948 631.842346,720.229858 600.014221,750.269592 
	C582.647156,766.660828 564.501892,782.289246 546.004639,797.401306 
	C531.243286,809.460999 515.669434,820.580933 499.994598,831.452332 
	C484.389099,842.275818 467.660919,851.186523 449.828644,857.968994 
	C436.851318,862.904968 424.643005,861.316650 412.198669,855.740723 
	C386.989502,844.445312 364.323029,829.094482 342.333740,812.699829 
	C317.834808,794.433960 294.206238,775.069214 272.249847,753.760376 
	C256.478333,738.454102 240.050125,723.724548 225.333130,707.454834 
	C202.744659,682.483276 181.372742,656.411011 159.503632,630.789612 
	C158.972855,630.167725 158.666550,629.354187 158.488861,628.320679 
	C159.635574,628.343384 160.699158,628.476685 161.440674,629.036499 
	C186.156219,647.697510 212.286423,663.965576 240.327713,677.253967 
	C267.299622,690.035645 295.089996,700.360046 324.075195,707.429138 
	C325.914001,707.877502 328.066132,707.040955 330.434937,706.845215 
	C332.258789,707.629883 333.743896,708.328674 335.177826,709.120239 
	C344.768921,714.414917 354.012054,720.491943 363.992371,724.902588 
	C402.499237,741.920227 442.032318,743.661194 482.246765,731.408813 
	C502.714294,725.172791 520.934326,714.684875 538.076782,702.367554 
	C539.603516,702.924683 541.220764,703.639343 542.480469,703.236267 
	C563.447815,696.528564 584.779785,690.706421 605.182129,682.561707 
	C623.756348,675.146851 641.737122,665.933167 659.182678,656.098938 
	C673.851440,647.830078 687.352417,637.495178 701.417664,628.146301 
	C705.196838,625.634338 709.149048,623.382629 713.021851,621.011475 
z"/>
<path fill="#63D621" opacity="1.000000" stroke="none" 
	d="
M252.553497,118.843231 
	C252.244415,120.035194 251.847168,121.568840 250.882034,122.535477 
	C240.665726,132.767868 233.255722,144.997894 226.817581,157.711121 
	C220.465134,170.255127 214.074524,182.981216 209.743698,196.292130 
	C205.222733,210.187454 202.741592,224.803940 200.130646,239.242920 
	C198.402832,248.797943 197.613541,258.576996 197.163910,268.290955 
	C196.828522,275.536713 197.371124,282.874359 198.133438,290.106689 
	C199.083786,299.122772 200.534836,308.093872 202.031189,317.040649 
	C202.626007,320.597107 203.921371,324.036346 204.466141,327.923584 
	C190.024124,327.189575 176.013779,326.060974 162.000656,324.512024 
	C161.584991,320.642181 161.121140,317.197937 160.768387,313.742340 
	C159.492065,301.239380 157.772049,288.756134 157.157684,276.219513 
	C156.696106,266.800171 157.279190,257.275330 158.117035,247.861526 
	C158.995392,237.992447 160.363174,228.129929 162.204758,218.394653 
	C163.834839,209.777420 166.317505,201.314102 168.598862,192.829926 
	C170.223175,186.789200 172.138046,180.826599 173.923248,174.829132 
	C184.889862,165.755188 195.354736,155.970398 206.949615,147.786636 
	C221.550858,137.480942 237.075470,128.483551 252.553497,118.843231 
z"/>
<path fill="#63D621" opacity="1.000000" stroke="none" 
	d="
M664.119690,327.414276 
	C669.514221,313.836639 669.807312,299.461578 671.103699,285.174744 
	C673.890076,254.466492 668.975891,224.728195 659.578491,195.770920 
	C651.809937,171.832916 639.972595,149.748428 624.385620,129.816406 
	C623.714172,128.957764 623.456848,127.775261 623.000916,126.378159 
	C638.069397,136.246689 653.444763,146.071274 668.111511,156.859222 
	C677.827515,164.005661 686.527954,172.532700 695.837341,181.153534 
	C696.199890,183.334152 696.196167,184.871750 696.647522,186.261551 
	C706.524841,216.672531 711.202881,247.830887 709.951111,279.805389 
	C709.640808,287.731049 708.896729,295.651764 708.036011,303.540283 
	C707.247620,310.764679 706.032227,317.942474 704.539368,325.204468 
	C690.755737,325.983521 677.437683,326.698914 664.119690,327.414276 
z"/>
<path fill="#2FAB1C" opacity="1.000000" stroke="none" 
	d="
M114.076981,563.980347 
	C96.867798,535.079712 82.060219,505.055908 71.566612,473.017944 
	C71.000435,471.289337 70.587761,469.510406 70.421471,467.419495 
	C71.549423,467.849487 72.588005,468.479858 73.132980,469.401978 
	C77.016541,475.972931 80.629234,482.708771 84.645081,489.195923 
	C98.463783,511.518402 114.078125,532.555359 132.229309,551.505798 
	C144.045578,563.842468 156.495697,575.674133 169.515396,586.726501 
	C181.862335,597.207703 194.940338,606.944458 208.378510,615.996704 
	C229.489227,630.217346 251.977921,642.099304 275.579681,651.705017 
	C282.735779,654.617493 290.276245,656.585571 297.719452,659.439697 
	C296.918671,667.763367 299.684784,674.543030 303.808014,681.143311 
	C301.774811,681.490601 299.882507,681.951355 298.242462,681.498474 
	C293.935120,680.309143 289.712097,678.793152 285.500702,677.281311 
	C261.969696,668.833740 239.181213,658.595032 218.021118,645.357117 
	C199.074875,633.504272 180.419998,620.963379 162.889801,607.137085 
	C147.856842,595.280396 134.632675,581.136841 120.510437,568.111023 
	C118.665527,566.409363 116.235817,565.341675 114.076981,563.980347 
z"/>
<path fill="#3DB61D" opacity="1.000000" stroke="none" 
	d="
M60.952549,411.002747 
	C61.770660,396.858398 62.588776,382.714050 63.989849,368.435913 
	C65.387360,369.889435 66.543556,371.391235 66.965324,373.076782 
	C73.502502,399.202026 84.038696,423.747589 96.384781,447.565094 
	C97.157463,449.055664 99.197113,449.889465 100.800629,451.306458 
	C104.027367,460.716522 107.100800,469.848938 110.173752,479.343323 
	C115.897957,494.005493 122.835632,507.644043 132.257095,520.298096 
	C143.239243,535.406189 155.878296,548.430664 171.101471,559.322998 
	C180.200714,566.003418 189.131348,572.391174 198.072983,579.138672 
	C202.494064,583.385742 206.577606,587.741272 211.368484,591.082642 
	C237.630417,609.398743 265.649384,624.482788 295.661957,635.741577 
	C306.680542,639.875061 317.565063,644.625244 328.905853,647.574829 
	C343.113647,651.269897 357.644470,653.992920 372.189392,656.049622 
	C388.366028,658.337036 404.685730,660.085144 420.998566,660.796509 
	C435.563324,661.431580 450.236786,660.829895 464.800812,659.855347 
	C478.125793,658.963806 491.362518,656.789795 504.650513,655.290466 
	C509.751648,654.714966 514.887024,654.442749 519.751038,654.279053 
	C513.365051,656.630737 507.252502,658.789062 501.101685,660.832092 
	C460.992859,674.154480 420.285645,676.373352 379.376495,665.655273 
	C360.123138,660.610962 341.517029,653.137756 322.392151,647.534729 
	C317.124664,645.991455 311.045624,647.218262 304.932678,647.122498 
	C303.246521,646.730713 301.930420,646.489380 300.692078,646.035706 
	C272.090485,635.559143 244.614838,622.646851 219.342682,605.637268 
	C203.848251,595.208618 188.612915,584.121765 174.652420,571.759460 
	C158.809052,557.729858 143.754089,542.620178 129.762817,526.740784 
	C114.985489,509.969299 102.311043,491.454163 91.231911,471.904785 
	C80.665016,453.259247 70.360893,434.539001 63.778053,414.014160 
	C63.398273,412.830078 61.919739,411.998413 60.952549,411.002747 
z"/>
<path fill="#3EB61D" opacity="1.000000" stroke="none" 
	d="
M520.006836,654.032349 
	C514.887024,654.442749 509.751648,654.714966 504.650513,655.290466 
	C491.362518,656.789795 478.125793,658.963806 464.800812,659.855347 
	C450.236786,660.829895 435.563324,661.431580 420.998566,660.796509 
	C404.685730,660.085144 388.366028,658.337036 372.189392,656.049622 
	C357.644470,653.992920 343.113647,651.269897 328.905853,647.574829 
	C317.565063,644.625244 306.680542,639.875061 295.661957,635.741577 
	C265.649384,624.482788 237.630417,609.398743 211.368484,591.082642 
	C206.577606,587.741272 202.494064,583.385742 198.426163,579.227417 
	C205.216522,582.194580 211.664703,585.432678 218.105789,589.047485 
	C218.770981,590.300232 219.261642,591.480164 220.142761,592.006897 
	C234.097015,600.349548 247.766830,609.252808 262.174286,616.732178 
	C282.694550,627.384888 304.298920,635.575073 326.543365,642.046936 
	C353.994568,650.033813 381.970245,655.396057 410.474365,656.768188 
	C428.867554,657.653687 447.447357,657.294983 465.796326,655.747925 
	C485.189240,654.112732 504.666473,651.566467 523.641357,647.332153 
	C552.042847,640.994141 579.384460,631.035706 605.606201,618.205383 
	C626.718750,607.874878 646.482788,595.340576 665.482910,581.595154 
	C669.095764,578.981506 671.831848,575.155823 675.163086,571.617859 
	C679.057373,568.653076 682.761108,565.959900 686.783691,563.166138 
	C692.812256,558.068787 698.521973,553.072144 704.516296,547.925537 
	C708.585388,543.537659 712.369995,539.299683 716.447021,534.901123 
	C720.856323,529.505798 724.973328,524.270996 729.375122,518.859985 
	C735.463135,508.131500 741.266357,497.579163 747.315918,486.779602 
	C749.380493,482.356110 751.198853,478.179840 753.385864,473.995575 
	C755.390320,472.523376 757.483032,471.342590 758.593689,469.552490 
	C774.942383,443.203552 787.984741,415.327484 797.148926,385.657349 
	C797.603088,384.187103 799.619751,383.199493 800.908813,381.987183 
	C801.239990,395.010468 801.571167,408.033752 801.498291,421.536469 
	C799.779663,423.568726 798.107056,424.939026 797.207397,426.703430 
	C790.496826,439.864838 784.197815,453.241241 777.280518,466.290924 
	C762.647766,493.896027 743.384521,518.189087 722.298340,541.044556 
	C714.647034,549.337952 706.328186,557.073364 697.835693,564.517761 
	C687.751709,573.357300 677.549744,582.159851 666.688782,589.993958 
	C647.278198,603.994995 627.034241,616.821960 605.008545,626.380005 
	C588.737732,633.440735 572.091309,639.635925 555.186096,646.188354 
	C549.737732,646.640137 544.582458,646.567139 539.725403,647.734619 
	C533.034546,649.342834 526.568909,651.888367 520.006836,654.032349 
z"/>
<path fill="#37B21D" opacity="1.000000" stroke="none" 
	d="
M60.938728,411.469177 
	C61.919739,411.998413 63.398273,412.830078 63.778053,414.014160 
	C70.360893,434.539001 80.665016,453.259247 91.231911,471.904785 
	C102.311043,491.454163 114.985489,509.969299 129.762817,526.740784 
	C143.754089,542.620178 158.809052,557.729858 174.652420,571.759460 
	C188.612915,584.121765 203.848251,595.208618 219.342682,605.637268 
	C244.614838,622.646851 272.090485,635.559143 300.692078,646.035706 
	C301.930420,646.489380 303.246521,646.730713 304.712524,647.386902 
	C302.479340,651.463989 300.059967,655.225098 297.640625,658.986206 
	C290.276245,656.585571 282.735779,654.617493 275.579681,651.705017 
	C251.977921,642.099304 229.489227,630.217346 208.378510,615.996704 
	C194.940338,606.944458 181.862335,597.207703 169.515396,586.726501 
	C156.495697,575.674133 144.045578,563.842468 132.229309,551.505798 
	C114.078125,532.555359 98.463783,511.518402 84.645081,489.195923 
	C80.629234,482.708771 77.016541,475.972931 73.132980,469.401978 
	C72.588005,468.479858 71.549423,467.849487 70.392883,467.038666 
	C64.775482,449.010223 60.646961,430.837921 60.938728,411.469177 
z"/>
<path fill="#2BA71C" opacity="1.000000" stroke="none" 
	d="
M713.312988,620.844727 
	C709.149048,623.382629 705.196838,625.634338 701.417664,628.146301 
	C687.352417,637.495178 673.851440,647.830078 659.182678,656.098938 
	C641.737122,665.933167 623.756348,675.146851 605.182129,682.561707 
	C584.779785,690.706421 563.447815,696.528564 542.480469,703.236267 
	C541.220764,703.639343 539.603516,702.924683 538.238525,702.075195 
	C547.807312,693.399048 556.600586,684.756042 563.461792,673.998169 
	C566.137695,673.543335 568.478516,673.322754 570.652466,672.600220 
	C606.673523,660.627319 640.588135,644.233215 671.753845,622.587158 
	C686.978027,612.013123 701.777283,600.654541 715.708984,588.442078 
	C729.052246,576.745422 741.009644,563.469666 753.609375,550.921387 
	C756.004395,548.536133 758.554871,546.307007 761.033691,544.005920 
	C755.531372,553.988220 750.478271,564.252747 744.424988,573.888916 
	C734.492920,589.699890 723.911682,605.102905 713.312988,620.844727 
z"/>
<path fill="#5CD020" opacity="1.000000" stroke="none" 
	d="
M173.618561,174.979111 
	C172.138046,180.826599 170.223175,186.789200 168.598862,192.829926 
	C166.317505,201.314102 163.834839,209.777420 162.204758,218.394653 
	C160.363174,228.129929 158.995392,237.992447 158.117035,247.861526 
	C157.279190,257.275330 156.696106,266.800171 157.157684,276.219513 
	C157.772049,288.756134 159.492065,301.239380 160.768387,313.742340 
	C161.121140,317.197937 161.584991,320.642181 161.567657,324.605377 
	C150.092514,326.749725 139.047607,328.380280 127.994324,329.607361 
	C123.433411,312.111572 122.590225,294.501678 122.276199,277.041565 
	C121.982460,260.709412 123.994469,244.335800 124.991699,227.980438 
	C139.066055,208.504532 155.227341,190.936676 173.618561,174.979111 
z"/>
<path fill="#5CD020" opacity="1.000000" stroke="none" 
	d="
M705.005005,325.140808 
	C706.032227,317.942474 707.247620,310.764679 708.036011,303.540283 
	C708.896729,295.651764 709.640808,287.731049 709.951111,279.805389 
	C711.202881,247.830887 706.524841,216.672531 696.647522,186.261551 
	C696.196167,184.871750 696.199890,183.334152 695.987671,181.453354 
	C707.998169,194.010193 720.073059,206.924057 731.983582,219.987686 
	C734.868225,223.151703 737.210815,226.810074 739.917297,230.951004 
	C743.922607,242.115585 744.128174,253.040436 743.967285,263.970642 
	C743.771729,277.251862 743.642517,290.547272 742.880371,303.801788 
	C742.445801,311.358856 740.956299,318.873993 739.586853,326.342926 
	C739.308105,327.862885 737.440308,329.091461 735.940430,330.437103 
	C725.385498,328.660187 715.195251,326.900482 705.005005,325.140808 
z"/>
<path fill="#25A31C" opacity="1.000000" stroke="none" 
	d="
M114.205978,564.293701 
	C116.235817,565.341675 118.665527,566.409363 120.510437,568.111023 
	C134.632675,581.136841 147.856842,595.280396 162.889801,607.137085 
	C180.419998,620.963379 199.074875,633.504272 218.021118,645.357117 
	C239.181213,658.595032 261.969696,668.833740 285.500702,677.281311 
	C289.712097,678.793152 293.935120,680.309143 298.242462,681.498474 
	C299.882507,681.951355 301.774811,681.490601 304.091309,681.330933 
	C307.855469,684.783997 310.933624,688.500061 314.339844,691.886047 
	C319.463470,696.979431 324.816833,701.841675 330.072510,706.802185 
	C328.066132,707.040955 325.914001,707.877502 324.075195,707.429138 
	C295.089996,700.360046 267.299622,690.035645 240.327713,677.253967 
	C212.286423,663.965576 186.156219,647.697510 161.440674,629.036499 
	C160.699158,628.476685 159.635574,628.343384 158.353256,628.008667 
	C143.434570,606.873108 128.884781,585.740112 114.205978,564.293701 
z"/>
<path fill="#35B01D" opacity="1.000000" stroke="none" 
	d="
M794.977539,456.998901 
	C791.799255,467.708252 788.694275,478.440247 785.408142,489.116455 
	C784.008911,493.662201 782.230835,498.091309 780.002991,502.828735 
	C778.541992,503.812653 777.506042,504.404785 776.892639,505.289764 
	C760.226379,529.337036 741.902405,551.974792 719.968201,571.463745 
	C708.455444,581.692993 696.914185,591.931580 684.848755,601.487915 
	C666.075867,616.356689 645.793762,629.093750 624.330200,639.641113 
	C608.267395,647.534424 591.520752,654.056030 574.952148,660.881409 
	C572.126343,662.045532 568.663513,661.663513 565.387268,661.600891 
	C564.534058,658.469910 563.788574,655.733765 563.431274,652.990234 
	C564.622498,652.790833 565.444519,652.656433 566.225891,652.398682 
	C589.347900,644.769470 611.289612,634.535767 632.584106,622.772278 
	C660.176758,607.529602 685.535400,589.153259 708.522339,567.707092 
	C721.131165,555.943359 732.814575,543.110718 744.207397,530.138428 
	C761.881470,510.014313 776.658142,487.798920 789.443176,464.253052 
	C790.877258,461.611969 793.113464,459.406433 794.977539,456.998901 
z"/>
<path fill="#3AB41D" opacity="1.000000" stroke="none" 
	d="
M795.138855,456.651672 
	C793.113464,459.406433 790.877258,461.611969 789.443176,464.253052 
	C776.658142,487.798920 761.881470,510.014313 744.207397,530.138428 
	C732.814575,543.110718 721.131165,555.943359 708.522339,567.707092 
	C685.535400,589.153259 660.176758,607.529602 632.584106,622.772278 
	C611.289612,634.535767 589.347900,644.769470 566.225891,652.398682 
	C565.444519,652.656433 564.622498,652.790833 563.237061,652.717773 
	C560.307129,650.374084 557.959656,648.295410 555.612183,646.216736 
	C572.091309,639.635925 588.737732,633.440735 605.008545,626.380005 
	C627.034241,616.821960 647.278198,603.994995 666.688782,589.993958 
	C677.549744,582.159851 687.751709,573.357300 697.835693,564.517761 
	C706.328186,557.073364 714.647034,549.337952 722.298340,541.044556 
	C743.384521,518.189087 762.647766,493.896027 777.280518,466.290924 
	C784.197815,453.241241 790.496826,439.864838 797.207397,426.703430 
	C798.107056,424.939026 799.779663,423.568726 801.441162,422.000854 
	C799.625305,433.425323 797.462708,444.864868 795.138855,456.651672 
z"/>
<path fill="#32AD1D" opacity="1.000000" stroke="none" 
	d="
M565.494995,661.995728 
	C568.663513,661.663513 572.126343,662.045532 574.952148,660.881409 
	C591.520752,654.056030 608.267395,647.534424 624.330200,639.641113 
	C645.793762,629.093750 666.075867,616.356689 684.848755,601.487915 
	C696.914185,591.931580 708.455444,581.692993 719.968201,571.463745 
	C741.902405,551.974792 760.226379,529.337036 776.892639,505.289764 
	C777.506042,504.404785 778.541992,503.812653 779.739990,503.062439 
	C777.501526,509.456055 775.167847,515.994751 772.237244,522.254028 
	C768.878357,529.427856 764.989807,536.353699 761.182495,543.696594 
	C758.554871,546.307007 756.004395,548.536133 753.609375,550.921387 
	C741.009644,563.469666 729.052246,576.745422 715.708984,588.442078 
	C701.777283,600.654541 686.978027,612.013123 671.753845,622.587158 
	C640.588135,644.233215 606.673523,660.627319 570.652466,672.600220 
	C568.478516,673.322754 566.137695,673.543335 563.501953,673.617188 
	C563.917847,669.489746 564.706421,665.742737 565.494995,661.995728 
z"/>
<path fill="#46BE1E" opacity="1.000000" stroke="none" 
	d="
M800.935791,381.560089 
	C799.619751,383.199493 797.603088,384.187103 797.148926,385.657349 
	C787.984741,415.327484 774.942383,443.203552 758.593689,469.552490 
	C757.483032,471.342590 755.390320,472.523376 753.417908,473.619751 
	C755.465027,464.858368 757.848694,456.464722 760.443115,447.765259 
	C762.459595,434.641205 764.265259,421.822998 766.154907,408.596527 
	C766.509460,403.791168 766.779968,399.394104 767.395996,394.935913 
	C768.729919,393.405548 770.179321,392.066345 770.636047,390.447113 
	C775.515137,373.151489 780.283691,355.824127 784.971802,338.475525 
	C786.276855,333.646027 787.216064,328.717651 788.323181,323.834625 
	C791.544556,335.919983 795.046631,347.940094 797.878052,360.116119 
	C799.476318,366.989197 799.970947,374.118927 800.935791,381.560089 
z"/>
<path fill="#54CA1F" opacity="1.000000" stroke="none" 
	d="
M124.697266,228.143250 
	C123.994469,244.335800 121.982460,260.709412 122.276199,277.041565 
	C122.590225,294.501678 123.433411,312.111572 127.731033,329.846252 
	C121.348526,334.002350 115.220940,337.516022 108.721405,340.977875 
	C107.241180,339.037079 105.514168,337.268219 105.120651,335.240509 
	C101.328430,315.700256 98.887169,296.005402 98.948181,276.049255 
	C98.954414,274.009949 98.235947,271.968445 97.853767,269.927948 
	C106.703461,256.053986 115.553146,242.180023 124.697266,228.143250 
z"/>
<path fill="#46BE1E" opacity="1.000000" stroke="none" 
	d="
M100.647339,451.028809 
	C99.197113,449.889465 97.157463,449.055664 96.384781,447.565094 
	C84.038696,423.747589 73.502502,399.202026 66.965324,373.076782 
	C66.543556,371.391235 65.387360,369.889435 64.247589,368.132843 
	C66.217987,350.200226 70.357903,332.906616 77.705124,316.302490 
	C81.888199,333.608368 85.177513,350.948425 89.184723,368.121002 
	C90.397179,373.316864 93.597733,378.048798 95.939934,383.419952 
	C95.986649,385.564697 95.981071,387.282776 95.871162,389.407593 
	C95.796600,397.211517 95.826363,404.608612 95.814796,412.471863 
	C96.580185,421.956512 97.386894,430.975037 98.147888,440.335144 
	C98.707817,441.487396 99.313477,442.298065 99.922379,443.094177 
	C99.925621,443.079651 99.885223,443.108551 99.860550,443.547516 
	C100.106354,446.333923 100.376846,448.681366 100.647339,451.028809 
z"/>
<path fill="#54CA1F" opacity="1.000000" stroke="none" 
	d="
M736.305054,330.454346 
	C737.440308,329.091461 739.308105,327.862885 739.586853,326.342926 
	C740.956299,318.873993 742.445801,311.358856 742.880371,303.801788 
	C743.642517,290.547272 743.771729,277.251862 743.967285,263.970642 
	C744.128174,253.040436 743.922607,242.115585 740.048340,231.260086 
	C749.052063,244.976791 758.039368,259.094299 766.772766,273.854034 
	C765.679138,287.182220 765.149353,299.898865 763.895020,312.543701 
	C763.000977,321.557281 761.283203,330.503235 759.567627,339.408966 
	C759.239563,341.111816 757.206116,342.486145 755.685669,343.825806 
	C750.836426,336.645538 743.461121,333.708771 736.305054,330.454346 
z"/>
<path fill="#4FC51F" opacity="1.000000" stroke="none" 
	d="
M755.959473,344.012024 
	C757.206116,342.486145 759.239563,341.111816 759.567627,339.408966 
	C761.283203,330.503235 763.000977,321.557281 763.895020,312.543701 
	C765.149353,299.898865 765.679138,287.182220 766.840820,274.206116 
	C776.107178,289.478333 783.049561,305.895538 788.241577,323.464783 
	C787.216064,328.717651 786.276855,333.646027 784.971802,338.475525 
	C780.283691,355.824127 775.515137,373.151489 770.636047,390.447113 
	C770.179321,392.066345 768.729919,393.405548 767.324707,394.503967 
	C766.318481,388.079895 765.728943,382.026703 765.158936,375.547455 
	C763.737244,364.268036 761.314575,353.705505 755.959473,344.012024 
z"/>
<path fill="#4FC51F" opacity="1.000000" stroke="none" 
	d="
M95.887634,382.993256 
	C93.597733,378.048798 90.397179,373.316864 89.184723,368.121002 
	C85.177513,350.948425 81.888199,333.608368 77.967674,316.068115 
	C79.734161,309.728394 81.458199,303.475616 84.070015,297.618713 
	C88.183159,288.395142 92.893448,279.437805 97.602341,270.147858 
	C98.235947,271.968445 98.954414,274.009949 98.948181,276.049255 
	C98.887169,296.005402 101.328430,315.700256 105.120651,335.240509 
	C105.514168,337.268219 107.241180,339.037079 108.608269,341.306213 
	C105.885513,348.782440 102.903946,355.878479 99.575996,363.120483 
	C98.848038,363.946106 98.221313,364.592438 98.123566,365.310730 
	C97.322556,371.197357 96.620056,377.097321 95.887634,382.993256 
z"/>
<path fill="#29292A" opacity="1.000000" stroke="none" 
	d="
M132.147644,519.987366 
	C122.835632,507.644043 115.897957,494.005493 110.626328,479.347961 
	C197.011520,478.990631 282.943634,478.990509 368.875763,478.990387 
	C371.186096,492.367523 373.496399,505.744629 375.293274,519.554077 
	C293.902435,519.986633 213.025040,519.987000 132.147644,519.987366 
z"/>
<path fill="#1D1D1E" opacity="1.000000" stroke="none" 
	d="
M760.232300,448.071106 
	C757.848694,456.464722 755.465027,464.858368 753.049316,473.627808 
	C751.198853,478.179840 749.380493,482.356110 746.841309,486.770752 
	C666.065002,487.006042 586.009399,487.019653 505.953857,486.957092 
	C501.338287,486.953491 496.723145,486.329895 492.107819,485.994812 
	C496.065704,473.450989 500.023590,460.907196 504.724976,448.151611 
	C516.458130,447.959869 527.447693,447.993591 538.437317,447.997772 
	C612.368958,448.025726 686.300659,448.047424 760.232300,448.071106 
z"/>
<path fill="#141414" opacity="1.000000" stroke="none" 
	d="
M760.443115,447.765259 
	C686.300659,448.047424 612.368958,448.025726 538.437317,447.997772 
	C527.447693,447.993591 516.458130,447.959869 504.954803,447.907349 
	C509.692017,433.505615 517.548157,420.571381 526.723267,408.374420 
	C529.085938,409.069366 531.050781,409.939758 533.016479,409.941559 
	C608.083862,410.010651 683.151245,410.010071 758.218689,409.958099 
	C760.836304,409.956299 763.453491,409.336548 766.070923,409.004822 
	C764.265259,421.822998 762.459595,434.641205 760.443115,447.765259 
z"/>
<path fill="#1F1F1F" opacity="1.000000" stroke="none" 
	d="
M368.879486,478.610931 
	C282.943634,478.990509 197.011520,478.990631 110.626816,478.986053 
	C107.100800,469.848938 104.027367,460.716522 100.800629,451.306458 
	C100.376846,448.681366 100.106354,446.333923 100.338516,443.511658 
	C183.148819,443.024536 265.456482,443.023254 347.764099,442.949524 
	C350.359467,442.947205 352.954224,442.198456 355.549255,441.797699 
	C359.398560,451.927887 363.271118,462.049347 367.076965,472.195862 
	C367.812744,474.157593 368.287842,476.217072 368.879486,478.610931 
z"/>
<path fill="#333334" opacity="1.000000" stroke="none" 
	d="
M132.257095,520.298096 
	C213.025040,519.987000 293.902435,519.986633 375.221069,519.979614 
	C375.827911,522.016479 375.993469,524.060120 376.150818,527.000732 
	C375.418457,537.930786 374.694336,547.963806 373.504089,557.997192 
	C308.451752,557.998413 243.865509,557.986389 179.279343,558.043640 
	C176.496887,558.046143 173.715012,558.686951 170.932861,559.030457 
	C155.878296,548.430664 143.239243,535.406189 132.257095,520.298096 
z"/>
<path fill="#262727" opacity="1.000000" stroke="none" 
	d="
M491.921692,486.340851 
	C496.723145,486.329895 501.338287,486.953491 505.953857,486.957092 
	C586.009399,487.019653 666.065002,487.006042 746.595093,487.017944 
	C741.266357,497.579163 735.463135,508.131500 728.898193,518.847290 
	C647.844910,519.002502 567.553345,518.994324 487.261780,518.986145 
	C488.753052,508.219727 490.244324,497.453308 491.921692,486.340851 
z"/>
<path fill="#020302" opacity="1.000000" stroke="none" 
	d="
M755.685669,343.825806 
	C761.314575,353.705505 763.737244,364.268036 764.679565,375.555267 
	C726.851440,375.992737 689.522278,375.997437 652.193115,375.999664 
	C623.196350,376.001373 594.199524,375.994019 565.202759,376.010620 
	C562.692810,376.012054 560.063782,376.421173 559.087891,373.178314 
	C580.262573,355.260101 604.460571,342.934875 630.942505,335.168579 
	C641.580139,332.048920 652.586243,330.185638 663.772156,327.582397 
	C677.437683,326.698914 690.755737,325.983521 704.539368,325.204468 
	C715.195251,326.900482 725.385498,328.660187 735.940430,330.437103 
	C743.461121,333.708771 750.836426,336.645538 755.685669,343.825806 
z"/>
<path fill="#0A0B0B" opacity="1.000000" stroke="none" 
	d="
M558.776123,373.288086 
	C560.063782,376.421173 562.692810,376.012054 565.202759,376.010620 
	C594.199524,375.994019 623.196350,376.001373 652.193115,375.999664 
	C689.522278,375.997437 726.851440,375.992737 764.660034,375.981293 
	C765.728943,382.026703 766.318481,388.079895 766.979248,394.565063 
	C766.779968,399.394104 766.509460,403.791168 766.154907,408.596527 
	C763.453491,409.336548 760.836304,409.956299 758.218689,409.958099 
	C683.151245,410.010071 608.083862,410.010651 533.016479,409.941559 
	C531.050781,409.939758 529.085938,409.069366 527.016357,408.194275 
	C535.569397,394.615479 546.458130,383.493988 558.776123,373.288086 
z"/>
<path fill="#161717" opacity="1.000000" stroke="none" 
	d="
M355.451141,441.440491 
	C352.954224,442.198456 350.359467,442.947205 347.764099,442.949524 
	C265.456482,443.023254 183.148819,443.024536 100.363197,443.072693 
	C99.885223,443.108551 99.925621,443.079651 99.950043,442.743713 
	C99.380852,441.603058 98.787231,440.798279 98.193611,439.993530 
	C97.386894,430.975037 96.580185,421.956512 96.215446,412.513733 
	C99.330750,412.726288 102.003311,413.915771 104.677513,413.919464 
	C177.925491,414.020172 251.173645,414.021027 324.421722,413.953247 
	C329.370667,413.948669 334.319000,413.274536 339.267639,412.911774 
	C344.629425,422.302277 349.991241,431.692810 355.451141,441.440491 
z"/>
<path fill="#5CD020" opacity="1.000000" stroke="none" 
	d="
M373.970184,557.996826 
	C374.694336,547.963806 375.418457,537.930786 376.226501,527.432983 
	C384.797180,528.117981 393.269287,529.392761 401.773865,530.390747 
	C417.674896,532.256531 433.560577,534.341125 449.640167,532.127075 
	C458.939667,530.846558 468.325134,530.191528 477.625458,528.916260 
	C480.449066,528.529053 483.117493,527.010498 486.314362,526.438049 
	C486.851898,529.577148 486.932098,532.288391 486.953308,535.452148 
	C487.218567,539.937927 487.542816,543.971130 487.831665,548.449341 
	C488.428375,553.301941 489.060516,557.709534 489.773682,562.502808 
	C490.975922,566.590393 492.097076,570.292358 493.277100,574.337280 
	C494.908844,578.081909 496.481720,581.483459 497.888947,585.214233 
	C496.201691,586.405762 494.753784,587.831543 493.146820,588.041870 
	C479.557404,589.820374 465.973450,592.216248 452.320038,592.777405 
	C436.914612,593.410583 421.424744,592.634521 405.997986,591.909912 
	C392.314484,591.267212 378.648346,589.962585 365.771667,584.569336 
	C368.565277,575.473572 371.267731,566.735168 373.970184,557.996826 
z"/>
<path fill="#111111" opacity="1.000000" stroke="none" 
	d="
M339.170959,412.573242 
	C334.319000,413.274536 329.370667,413.948669 324.421722,413.953247 
	C251.173645,414.021027 177.925491,414.020172 104.677513,413.919464 
	C102.003311,413.915771 99.330750,412.726288 96.256775,412.047577 
	C95.826363,404.608612 95.796600,397.211517 96.288429,389.461365 
	C98.931122,389.405548 101.052040,389.961182 103.173317,389.962555 
	C173.122314,390.007843 243.071350,390.009888 313.020325,389.952271 
	C315.116486,389.950531 317.212067,389.242004 319.307922,388.863037 
	C321.861938,391.337891 324.674713,393.600647 326.914368,396.333160 
	C331.141846,401.490967 335.039520,406.919006 339.170959,412.573242 
z"/>
<path fill="#0A0B0B" opacity="1.000000" stroke="none" 
	d="
M319.159729,388.553925 
	C317.212067,389.242004 315.116486,389.950531 313.020325,389.952271 
	C243.071350,390.009888 173.122314,390.007843 103.173317,389.962555 
	C101.052040,389.961182 98.931122,389.405548 96.392761,389.054565 
	C95.981071,387.282776 95.986649,385.564697 95.939926,383.419952 
	C96.620056,377.097321 97.322556,371.197357 98.123566,365.310730 
	C98.221313,364.592438 98.848038,363.946106 99.996475,363.180206 
	C102.881851,363.395966 105.000153,363.960052 107.118919,363.961792 
	C165.024292,364.009583 222.929764,364.026093 280.834961,363.910492 
	C283.310211,363.905548 285.782837,362.590363 288.256683,361.885559 
	C300.350372,368.522736 309.534882,378.554199 319.159729,388.553925 
z"/>
<path fill="#030403" opacity="1.000000" stroke="none" 
	d="
M288.047943,361.598633 
	C285.782837,362.590363 283.310211,363.905548 280.834961,363.910492 
	C222.929764,364.026093 165.024292,364.009583 107.118919,363.961792 
	C105.000153,363.960052 102.881851,363.395966 100.342850,363.034241 
	C102.903946,355.878479 105.885513,348.782440 108.980209,341.358032 
	C115.220940,337.516022 121.348526,334.002350 127.739410,330.249756 
	C139.047607,328.380280 150.092514,326.749725 161.570435,325.025757 
	C176.013779,326.060974 190.024124,327.189575 204.470566,328.319153 
	C227.806473,332.926117 249.943314,339.781250 270.549500,350.985931 
	C276.442047,354.190033 282.082947,357.856964 288.047943,361.598633 
z"/>
<path fill="#2D2D2E" opacity="1.000000" stroke="none" 
	d="
M487.012268,534.999634 
	C486.932098,532.288391 486.851898,529.577148 486.668335,526.424988 
	C486.721191,523.936157 486.877380,521.888306 487.147705,519.413269 
	C567.553345,518.994324 647.844910,519.002502 728.613403,519.023438 
	C724.973328,524.270996 720.856323,529.505798 715.964783,534.881104 
	C639.130859,535.014282 563.071594,535.006958 487.012268,534.999634 
z"/>
<path fill="#242524" opacity="1.000000" stroke="none" 
	d="
M565.387268,661.600891 
	C564.706421,665.742737 563.917847,669.489746 563.089172,673.617798 
	C556.600586,684.756042 547.807312,693.399048 538.162659,701.712646 
	C520.934326,714.684875 502.714294,725.172791 482.246765,731.408813 
	C442.032318,743.661194 402.499237,741.920227 363.992371,724.902588 
	C354.012054,720.491943 344.768921,714.414917 335.177826,709.120239 
	C333.743896,708.328674 332.258789,707.629883 330.434937,706.845215 
	C324.816833,701.841675 319.463470,696.979431 314.339844,691.886047 
	C310.933624,688.500061 307.855469,684.783997 304.347168,681.027954 
	C299.684784,674.543030 296.918671,667.763367 297.719421,659.439697 
	C300.059967,655.225098 302.479340,651.463989 305.118835,647.438477 
	C311.045624,647.218262 317.124664,645.991455 322.392151,647.534729 
	C341.517029,653.137756 360.123138,660.610962 379.376495,665.655273 
	C420.285645,676.373352 460.992859,674.154480 501.101685,660.832092 
	C507.252502,658.789062 513.365051,656.630737 519.751038,654.279053 
	C526.568909,651.888367 533.034546,649.342834 539.725403,647.734619 
	C544.582458,646.567139 549.737732,646.640137 555.186096,646.188354 
	C557.959656,648.295410 560.307129,650.374084 562.848877,652.725159 
	C563.788574,655.733765 564.534058,658.469910 565.387268,661.600891 
z"/>
<path fill="#3E3E3F" opacity="1.000000" stroke="none" 
	d="
M373.504089,557.997192 
	C371.267731,566.735168 368.565277,575.473572 365.513519,584.752808 
	C357.154236,597.770874 344.684784,602.915344 330.606689,606.051880 
	C319.130096,606.908142 308.051056,607.781067 296.613861,608.509399 
	C286.838470,607.293152 277.421234,606.221436 267.651642,604.950684 
	C259.866913,602.851501 252.434555,600.951477 244.688416,598.879272 
	C235.620712,595.361694 226.866806,592.016235 218.112900,588.670715 
	C211.664703,585.432678 205.216522,582.194580 198.415161,578.867798 
	C189.131348,572.391174 180.200714,566.003418 171.101471,559.322998 
	C173.715012,558.686951 176.496887,558.046143 179.279343,558.043640 
	C243.865509,557.986389 308.451752,557.998413 373.504089,557.997192 
z"/>
<path fill="#333334" opacity="1.000000" stroke="none" 
	d="
M489.692627,562.117065 
	C489.060516,557.709534 488.428375,553.301941 488.313049,548.447876 
	C560.630493,548.026123 632.431091,548.050781 704.231750,548.075439 
	C698.521973,553.072144 692.812256,558.068787 686.361450,562.969482 
	C683.677429,562.582275 681.735596,562.046875 679.791443,562.038574 
	C663.825134,561.970276 647.858459,561.990295 631.891846,562.001709 
	C584.492126,562.035706 537.092346,562.078064 489.692627,562.117065 
z"/>
<path fill="#303031" opacity="1.000000" stroke="none" 
	d="
M704.516296,547.925537 
	C632.431091,548.050781 560.630493,548.026123 488.348450,548.002930 
	C487.542816,543.971130 487.218567,539.937927 486.953308,535.452148 
	C563.071594,535.006958 639.130859,535.014282 715.672363,535.041687 
	C712.369995,539.299683 708.585388,543.537659 704.516296,547.925537 
z"/>
<path fill="#40B91E" opacity="1.000000" stroke="none" 
	d="
M218.105789,589.047485 
	C226.866806,592.016235 235.620712,595.361694 244.728806,599.222717 
	C246.196487,600.900635 247.112534,602.416138 248.455994,603.167297 
	C256.434265,607.628540 264.272675,612.449341 272.600037,616.156494 
	C297.965088,627.448669 323.971344,636.881348 351.174133,642.972473 
	C372.732025,647.799622 394.538300,650.677307 416.502472,651.791748 
	C431.235107,652.539368 446.075073,651.549255 460.851807,650.956848 
	C479.906311,650.192871 498.656647,647.267761 517.321655,643.221558 
	C561.801575,633.579041 602.983032,616.208313 641.262390,591.769287 
	C642.487061,590.987427 643.079102,589.214783 643.991333,587.705444 
	C644.016541,587.506775 644.073486,587.110352 644.432434,587.054138 
	C651.597534,583.672546 658.403748,580.347168 665.347412,576.934692 
	C665.663574,576.719971 665.807983,576.561218 666.276367,576.273193 
	C669.413879,574.746460 672.193176,573.317932 674.972473,571.889404 
	C671.831848,575.155823 669.095764,578.981506 665.482910,581.595154 
	C646.482788,595.340576 626.718750,607.874878 605.606201,618.205383 
	C579.384460,631.035706 552.042847,640.994141 523.641357,647.332153 
	C504.666473,651.566467 485.189240,654.112732 465.796326,655.747925 
	C447.447357,657.294983 428.867554,657.653687 410.474365,656.768188 
	C381.970245,655.396057 353.994568,650.033813 326.543365,642.046936 
	C304.298920,635.575073 282.694550,627.384888 262.174286,616.732178 
	C247.766830,609.252808 234.097015,600.349548 220.142761,592.006897 
	C219.261642,591.480164 218.770981,590.300232 218.105789,589.047485 
z"/>
<path fill="#383739" opacity="1.000000" stroke="none" 
	d="
M675.163086,571.617859 
	C672.193176,573.317932 669.413879,574.746460 666.075867,576.177124 
	C665.517151,576.179260 665.072632,576.174377 664.880371,575.814331 
	C662.515564,574.969482 660.343689,574.064636 658.170471,574.061462 
	C603.186401,573.981506 548.202332,573.996155 493.218201,573.994263 
	C492.097076,570.292358 490.975922,566.590393 489.773682,562.502808 
	C537.092346,562.078064 584.492126,562.035706 631.891846,562.001709 
	C647.858459,561.990295 663.825134,561.970276 679.791443,562.038574 
	C681.735596,562.046875 683.677429,562.582275 686.042603,563.070068 
	C682.761108,565.959900 679.057373,568.653076 675.163086,571.617859 
z"/>
<path fill="#1F1F1F" opacity="1.000000" stroke="none" 
	d="
M98.147888,440.335144 
	C98.787231,440.798279 99.380852,441.603058 99.946800,442.758270 
	C99.313477,442.298065 98.707817,441.487396 98.147888,440.335144 
z"/>
<path fill="#4FC51F" opacity="1.000000" stroke="none" 
	d="
M331.004242,606.068420 
	C344.684784,602.915344 357.154236,597.770874 365.422363,585.110229 
	C378.648346,589.962585 392.314484,591.267212 405.997986,591.909912 
	C421.424744,592.634521 436.914612,593.410583 452.320038,592.777405 
	C465.973450,592.216248 479.557404,589.820374 493.146820,588.041870 
	C494.753784,587.831543 496.201691,586.405762 498.125916,585.330933 
	C498.943848,585.441284 499.359161,585.764160 499.874451,586.416931 
	C501.826294,588.604736 503.450104,590.789734 505.567902,592.266296 
	C517.391724,600.509766 531.062378,603.232483 544.927734,605.415161 
	C543.434265,606.503479 542.081726,607.456055 540.578369,607.946716 
	C518.615417,615.114929 496.138611,620.040649 473.122711,621.927612 
	C458.008972,623.166748 442.790466,624.135376 427.651978,623.787048 
	C411.970154,623.426208 396.197754,622.167664 380.705780,619.755249 
	C365.380707,617.368896 350.339111,613.122803 335.225677,609.474854 
	C333.637024,609.091309 332.402863,607.239197 331.004242,606.068420 
z"/>
<path fill="#3A3A3B" opacity="1.000000" stroke="none" 
	d="
M499.774506,586.087036 
	C499.359161,585.764160 498.943848,585.441284 498.291534,585.001709 
	C496.481720,581.483459 494.908844,578.081909 493.277100,574.337280 
	C548.202332,573.996155 603.186401,573.981506 658.170471,574.061462 
	C660.343689,574.064636 662.515564,574.969482 664.897217,576.028564 
	C665.106323,576.602905 665.209900,577.021790 665.209900,577.021790 
	C658.403748,580.347168 651.597534,583.672546 644.136353,586.744019 
	C642.512085,586.327087 641.542847,586.021606 640.573669,586.021667 
	C593.640625,586.026917 546.707581,586.058411 499.774506,586.087036 
z"/>
<path fill="#49C01E" opacity="1.000000" stroke="none" 
	d="
M330.606689,606.051880 
	C332.402863,607.239197 333.637024,609.091309 335.225677,609.474854 
	C350.339111,613.122803 365.380707,617.368896 380.705780,619.755249 
	C396.197754,622.167664 411.970154,623.426208 427.651978,623.787048 
	C442.790466,624.135376 458.008972,623.166748 473.122711,621.927612 
	C496.138611,620.040649 518.615417,615.114929 540.578369,607.946716 
	C542.081726,607.456055 543.434265,606.503479 545.372253,605.332642 
	C552.086426,605.235291 558.296021,605.965637 564.481262,605.798523 
	C570.999756,605.622437 577.495056,604.589294 583.964111,604.286987 
	C582.089111,606.186340 580.483521,608.282410 578.369995,609.172607 
	C570.879761,612.327393 563.297119,615.308838 555.602783,617.924194 
	C533.601135,625.402527 511.246002,631.538818 488.075043,634.135437 
	C475.103668,635.589111 462.120636,637.390808 449.100311,637.863159 
	C420.537170,638.899353 392.194885,636.787292 364.055115,631.183228 
	C342.180695,626.826843 320.953857,620.609802 300.250885,612.473267 
	C298.870789,611.930847 298.051941,609.960266 296.972046,608.653992 
	C308.051056,607.781067 319.130096,606.908142 330.606689,606.051880 
z"/>
<path fill="#46BE1E" opacity="1.000000" stroke="none" 
	d="
M296.613861,608.509399 
	C298.051941,609.960266 298.870789,611.930847 300.250885,612.473267 
	C320.953857,620.609802 342.180695,626.826843 364.055115,631.183228 
	C392.194885,636.787292 420.537170,638.899353 449.100311,637.863159 
	C462.120636,637.390808 475.103668,635.589111 488.075043,634.135437 
	C511.246002,631.538818 533.601135,625.402527 555.602783,617.924194 
	C563.297119,615.308838 570.879761,612.327393 578.369995,609.172607 
	C580.483521,608.282410 582.089111,606.186340 584.323303,604.125000 
	C595.145569,601.643799 605.572205,599.680847 615.961670,598.078918 
	C615.121277,599.211670 614.447571,600.246887 613.495239,600.715027 
	C601.582703,606.571228 589.850403,612.865234 577.646362,618.044128 
	C538.659729,634.588257 497.741272,643.521729 455.591217,645.711792 
	C436.102295,646.724487 416.431366,645.090881 396.886292,643.928101 
	C376.680115,642.725952 356.940674,638.392883 337.371887,633.286987 
	C314.783173,627.393188 293.155975,618.951233 272.107239,608.966003 
	C270.498199,608.202637 269.360718,606.445129 268.004028,605.149719 
	C277.421234,606.221436 286.838470,607.293152 296.613861,608.509399 
z"/>
<path fill="#43BB1E" opacity="1.000000" stroke="none" 
	d="
M267.651642,604.950684 
	C269.360718,606.445129 270.498199,608.202637 272.107239,608.966003 
	C293.155975,618.951233 314.783173,627.393188 337.371887,633.286987 
	C356.940674,638.392883 376.680115,642.725952 396.886292,643.928101 
	C416.431366,645.090881 436.102295,646.724487 455.591217,645.711792 
	C497.741272,643.521729 538.659729,634.588257 577.646362,618.044128 
	C589.850403,612.865234 601.582703,606.571228 613.495239,600.715027 
	C614.447571,600.246887 615.121277,599.211670 616.271729,597.921509 
	C625.734741,594.236755 634.850464,591.070435 643.966125,587.904114 
	C643.079102,589.214783 642.487061,590.987427 641.262390,591.769287 
	C602.983032,616.208313 561.801575,633.579041 517.321655,643.221558 
	C498.656647,647.267761 479.906311,650.192871 460.851807,650.956848 
	C446.075073,651.549255 431.235107,652.539368 416.502472,651.791748 
	C394.538300,650.677307 372.732025,647.799622 351.174133,642.972473 
	C323.971344,636.881348 297.965088,627.448669 272.600037,616.156494 
	C264.272675,612.449341 256.434265,607.628540 248.455994,603.167297 
	C247.112534,602.416138 246.196487,600.900635 245.042603,599.394775 
	C252.434555,600.951477 259.866913,602.851501 267.651642,604.950684 
z"/>
<path fill="#3E3E3F" opacity="1.000000" stroke="none" 
	d="
M643.991333,587.705444 
	C634.850464,591.070435 625.734741,594.236755 616.308960,597.560425 
	C605.572205,599.680847 595.145569,601.643799 584.359741,603.768677 
	C577.495056,604.589294 570.999756,605.622437 564.481262,605.798523 
	C558.296021,605.965637 552.086426,605.235291 545.443115,604.982117 
	C531.062378,603.232483 517.391724,600.509766 505.567902,592.266296 
	C503.450104,590.789734 501.826294,588.604736 499.874451,586.416931 
	C546.707581,586.058411 593.640625,586.026917 640.573669,586.021667 
	C641.542847,586.021606 642.512085,586.327087 643.777344,586.800171 
	C644.073486,587.110352 644.016541,587.506775 643.991333,587.705444 
z"/>
<path fill="#3DB61D" opacity="1.000000" stroke="none" 
	d="
M665.347412,576.934692 
	C665.209900,577.021790 665.106323,576.602905 665.089478,576.388672 
	C665.072632,576.174377 665.517151,576.179260 665.717651,576.275330 
	C665.807983,576.561218 665.663574,576.719971 665.347412,576.934692 
z"/>
</svg>