<svg version="1.1" id="Layer_1" xmlns="http://www.w3.org/2000/svg" xmlns:xlink="http://www.w3.org/1999/xlink" x="0px" y="0px"
	 width="100%" viewBox="0 0 544 352" enable-background="new 0 0 544 352" xml:space="preserve">
<path fill="#000000" opacity="1.000000" stroke="none" 
	d="
M359.465424,309.915924 
	C358.765076,301.593231 358.125580,293.641632 357.827454,285.677277 
	C357.411652,274.569153 357.671021,263.499878 352.866425,252.932251 
	C350.153900,246.966202 349.902527,240.136276 348.823303,233.442612 
	C345.549225,244.157745 337.392609,252.731384 337.030548,264.734192 
	C336.834198,271.243408 334.583069,277.789795 332.621246,284.121826 
	C330.105804,292.240601 331.935852,299.166534 336.978821,305.596405 
	C339.556244,308.882660 343.048798,312.400543 340.771729,316.703003 
	C338.423279,321.140289 333.515900,319.526337 329.444824,319.365021 
	C326.241699,319.238098 323.158417,318.558777 320.269257,317.234894 
	C316.591583,315.549683 314.201416,312.513885 314.964386,308.524628 
	C315.665405,304.859497 315.313293,301.757935 313.788452,298.447479 
	C311.833160,294.202515 313.500092,289.959198 314.457672,285.767914 
	C316.458557,277.010345 321.124481,269.042511 322.105072,259.979095 
	C322.211945,258.991241 322.781158,257.933136 322.563171,257.048767 
	C320.123840,247.152557 323.763367,238.444870 327.712952,229.778137 
	C327.987671,229.175278 328.175293,228.528854 328.363190,227.890839 
	C331.003662,218.924301 330.145142,215.705948 319.558441,216.651245 
	C301.787598,218.238022 284.320038,220.650330 266.918854,224.690735 
	C253.812210,227.734009 241.172440,223.501907 229.249496,217.903473 
	C221.106857,214.080078 220.817947,214.012314 217.824005,222.670776 
	C216.582474,226.261292 214.242981,229.067612 211.540298,231.555038 
	C208.534882,234.321121 206.882141,237.418076 207.239059,241.662613 
	C207.399689,243.572906 206.723526,245.592957 206.206451,247.503494 
	C205.963211,248.402176 205.198761,249.159775 204.670471,249.981308 
	C201.358307,247.220444 196.486740,254.644379 193.751144,247.453705 
	C191.969482,250.444580 191.032623,254.523209 187.034256,250.394730 
	C185.493362,248.803696 184.480484,252.103729 182.047058,251.469666 
	C185.223434,260.007385 190.003647,266.826324 193.976410,274.056152 
	C195.498016,276.825256 197.366257,279.474213 198.426926,282.412415 
	C201.053940,289.689667 205.563263,295.500732 211.262711,300.559021 
	C216.447327,305.160400 220.122559,310.746338 222.252777,317.121307 
	C220.481018,319.079559 218.587708,318.958801 216.776184,318.971893 
	C211.944183,319.006836 207.105774,318.823669 202.281143,319.013306 
	C197.409073,319.204803 195.323563,316.715698 194.847046,312.229950 
	C194.087967,305.083923 192.189682,302.904449 185.150574,301.214813 
	C181.999222,300.458405 180.419510,298.475464 179.804749,295.379120 
	C176.591949,279.197205 170.454208,264.593964 157.850937,253.212006 
	C152.825623,248.673645 149.830399,242.651382 148.540756,235.434814 
	C143.375290,237.321655 140.080124,240.326797 138.641937,245.025360 
	C136.620514,251.629456 133.786438,257.742218 129.433197,263.161865 
	C126.422890,266.909546 124.883553,271.564331 124.636253,276.125061 
	C124.140633,285.265594 121.857574,294.231476 122.295479,303.450165 
	C122.530663,308.401337 123.550850,312.842163 126.837326,316.830994 
	C129.888519,320.534210 132.729385,324.478607 134.390976,329.118713 
	C135.586670,332.457733 134.881378,334.251343 131.028809,334.241974 
	C124.864006,334.227020 118.697525,334.248383 112.534554,334.383057 
	C109.107430,334.457916 107.382767,332.762085 107.732971,329.551483 
	C108.748642,320.240021 106.656242,311.825043 101.584770,303.948456 
	C99.489456,300.694214 100.384590,296.874115 101.065544,293.225769 
	C103.564789,279.835480 106.022995,266.443756 106.774902,252.795761 
	C107.072075,247.401642 105.831795,242.217392 105.362892,236.931305 
	C104.714996,229.627548 106.079918,222.774323 112.504395,218.322601 
	C117.800507,214.652771 118.547638,209.641571 117.307098,204.237900 
	C114.234528,190.854065 114.463501,177.139648 112.811142,163.618500 
	C111.863060,155.860443 110.664009,148.159561 109.359550,140.465179 
	C108.090820,132.981506 108.214096,125.556442 110.345406,118.236626 
	C114.433434,104.196648 124.113617,96.671028 138.299728,94.662399 
	C155.178253,92.272545 172.200195,92.900345 189.162277,92.765968 
	C213.306931,92.574669 237.336807,92.076103 261.129547,86.986198 
	C271.392517,84.790680 282.159760,85.620140 292.367279,87.919868 
	C304.235535,90.593742 315.871948,91.391411 327.959534,89.796097 
	C342.906830,87.823380 357.958984,86.636978 372.822906,84.133049 
	C372.901398,73.434502 375.230499,71.871506 385.839355,75.364395 
	C388.772064,76.329956 391.646210,77.473267 394.917877,78.670670 
	C391.305176,70.283127 387.284576,62.643299 385.472992,54.094650 
	C389.439240,52.955017 390.869049,55.127316 392.335907,57.124977 
	C395.096069,60.883945 397.688293,64.777374 401.429626,67.693504 
	C403.773315,69.520233 405.899139,70.136215 408.475708,67.753540 
	C411.141571,65.288284 414.540436,64.381783 418.225891,64.897461 
	C418.883972,64.989532 419.610687,65.181236 420.211487,65.005302 
	C430.696320,61.934978 441.269745,61.311386 452.153992,62.649113 
	C456.362213,63.166325 458.496552,59.608864 458.645844,55.360378 
	C458.749084,52.422909 458.589355,49.413841 461.283966,46.462955 
	C465.641235,50.917576 465.753113,56.170181 465.199707,61.330639 
	C464.388123,68.899216 458.923187,72.196495 452.218689,73.773125 
	C453.415588,79.806000 454.749664,80.439659 459.215881,77.440201 
	C462.537354,75.209541 465.846924,72.889877 470.045776,72.701820 
	C474.686768,72.493958 476.197266,74.506310 474.581604,78.867233 
	C472.427246,84.682152 468.367584,89.050705 463.562439,92.788437 
	C454.821716,99.587456 452.195129,113.371605 458.009918,123.060974 
	C460.734955,127.601791 462.607910,132.265610 462.304718,137.656662 
	C462.087006,141.527481 460.937378,145.254639 457.498810,147.040604 
	C450.647888,150.598923 443.509796,153.279861 435.672760,149.426865 
	C429.663879,146.472687 420.274445,150.491302 418.203461,158.341370 
	C415.394653,168.987961 408.747375,178.228592 407.564819,189.362823 
	C407.409729,190.823257 407.090729,192.457275 406.288849,193.628220 
	C398.971893,204.312653 391.385834,214.839386 381.170593,222.981277 
	C378.700836,224.949799 377.143280,226.647369 377.232025,229.817154 
	C377.357727,234.308746 377.452972,238.809769 377.308868,243.298660 
	C376.909912,255.725952 374.249725,268.023865 375.314545,280.547272 
	C375.850189,286.846832 376.074524,293.175293 376.327118,299.495178 
	C376.422424,301.879425 377.796967,303.487396 379.150513,305.177673 
	C382.691132,309.599091 386.166382,314.024658 388.425659,319.332458 
	C390.037781,323.119812 389.062531,325.270203 385.340607,326.704376 
	C382.206696,327.912048 379.010040,328.849182 375.694977,329.147919 
	C369.335876,329.720917 365.730896,327.079956 365.154602,320.709534 
	C364.752228,316.261749 363.436401,312.748840 359.465424,309.915924 
M124.526787,194.776978 
	C125.389351,184.436310 125.326607,174.220413 120.472656,164.645264 
	C119.576241,174.917770 119.817421,185.047882 124.526787,194.776978 
z"/>
</svg>